<svg width="393" height="85" viewBox="0 0 393 85" fill="none" xmlns="http://www.w3.org/2000/svg">
<path d="M103.168 39.204H109.108V43.56H103.168V49.5H98.812V43.56H92.908V39.204H98.812V33.3H103.168V39.204ZM108.554 33.552V28.8H124.826V33.012L116.294 54H111.038L119.318 33.552H108.554ZM150.502 40.896C152.83 42.288 153.994 44.316 153.994 46.98C153.994 49.308 153.178 51.144 151.546 52.488C149.938 53.832 147.742 54.504 144.958 54.504C142.15 54.504 139.942 53.832 138.334 52.488C136.726 51.144 135.922 49.308 135.922 46.98C135.922 44.34 137.074 42.312 139.378 40.896C137.626 39.648 136.75 37.908 136.75 35.676C136.75 33.348 137.53 31.536 139.09 30.24C140.674 28.944 142.63 28.296 144.958 28.296C147.31 28.296 149.254 28.944 150.79 30.24C152.35 31.536 153.13 33.348 153.13 35.676C153.13 37.908 152.254 39.648 150.502 40.896ZM148.198 35.928C148.198 35.016 147.898 34.296 147.298 33.768C146.698 33.24 145.918 32.976 144.958 32.976C143.998 32.976 143.218 33.24 142.618 33.768C142.018 34.296 141.718 35.016 141.718 35.928C141.718 36.864 142.018 37.596 142.618 38.124C143.218 38.652 143.998 38.916 144.958 38.916C145.918 38.916 146.698 38.652 147.298 38.124C147.898 37.596 148.198 36.864 148.198 35.928ZM147.946 48.888C148.69 48.264 149.062 47.412 149.062 46.332C149.062 45.252 148.69 44.412 147.946 43.812C147.202 43.188 146.206 42.876 144.958 42.876C143.71 42.876 142.714 43.188 141.97 43.812C141.226 44.412 140.854 45.252 140.854 46.332C140.854 47.412 141.226 48.264 141.97 48.888C142.714 49.512 143.71 49.824 144.958 49.824C146.206 49.824 147.202 49.512 147.946 48.888ZM166.535 54.504C163.391 54.504 160.919 53.316 159.119 50.94C157.343 48.516 156.455 45.336 156.455 41.4C156.455 37.464 157.343 34.296 159.119 31.896C160.919 29.496 163.391 28.296 166.535 28.296C169.727 28.296 172.199 29.496 173.951 31.896C175.727 34.296 176.615 37.464 176.615 41.4C176.615 45.336 175.727 48.516 173.951 50.94C172.199 53.316 169.727 54.504 166.535 54.504ZM171.683 41.4C171.683 38.712 171.239 36.66 170.351 35.244C169.487 33.828 168.215 33.12 166.535 33.12C164.855 33.12 163.583 33.828 162.719 35.244C161.855 36.66 161.423 38.712 161.423 41.4C161.423 44.088 161.855 46.14 162.719 47.556C163.583 48.948 164.855 49.644 166.535 49.644C168.215 49.644 169.487 48.936 170.351 47.52C171.239 46.104 171.683 44.064 171.683 41.4ZM189.211 54.504C186.067 54.504 183.595 53.316 181.795 50.94C180.019 48.516 179.131 45.336 179.131 41.4C179.131 37.464 180.019 34.296 181.795 31.896C183.595 29.496 186.067 28.296 189.211 28.296C192.403 28.296 194.875 29.496 196.627 31.896C198.403 34.296 199.291 37.464 199.291 41.4C199.291 45.336 198.403 48.516 196.627 50.94C194.875 53.316 192.403 54.504 189.211 54.504ZM194.359 41.4C194.359 38.712 193.915 36.66 193.027 35.244C192.163 33.828 190.891 33.12 189.211 33.12C187.531 33.12 186.259 33.828 185.395 35.244C184.531 36.66 184.099 38.712 184.099 41.4C184.099 44.088 184.531 46.14 185.395 47.556C186.259 48.948 187.531 49.644 189.211 49.644C190.891 49.644 192.163 48.936 193.027 47.52C193.915 46.104 194.359 44.064 194.359 41.4ZM226.971 32.904L222.255 39.024C224.007 39.528 225.399 40.416 226.431 41.688C227.487 42.96 228.015 44.472 228.015 46.224C228.015 48.816 227.139 50.844 225.387 52.308C223.683 53.772 221.559 54.504 219.015 54.504C217.023 54.504 215.259 54.048 213.723 53.136C212.187 52.2 211.071 50.88 210.375 49.176L214.623 46.728C215.223 48.672 216.687 49.644 219.015 49.644C220.287 49.644 221.271 49.344 221.967 48.744C222.687 48.12 223.047 47.28 223.047 46.224C223.047 45.192 222.687 44.364 221.967 43.74C221.271 43.116 220.287 42.804 219.015 42.804H217.935L216.027 39.924L220.995 33.444H211.131V28.8H226.971V32.904ZM240.504 54.504C237.36 54.504 234.888 53.316 233.088 50.94C231.312 48.516 230.424 45.336 230.424 41.4C230.424 37.464 231.312 34.296 233.088 31.896C234.888 29.496 237.36 28.296 240.504 28.296C243.696 28.296 246.168 29.496 247.92 31.896C249.696 34.296 250.584 37.464 250.584 41.4C250.584 45.336 249.696 48.516 247.92 50.94C246.168 53.316 243.696 54.504 240.504 54.504ZM245.652 41.4C245.652 38.712 245.208 36.66 244.32 35.244C243.456 33.828 242.184 33.12 240.504 33.12C238.824 33.12 237.552 33.828 236.688 35.244C235.824 36.66 235.392 38.712 235.392 41.4C235.392 44.088 235.824 46.14 236.688 47.556C237.552 48.948 238.824 49.644 240.504 49.644C242.184 49.644 243.456 48.936 244.32 47.52C245.208 46.104 245.652 44.064 245.652 41.4ZM251.533 31.14L258.157 28.8H262.477V54H257.509V34.056L252.757 35.388L251.533 31.14ZM280.899 45.36H267.399V40.896H280.899V45.36ZM281.171 33.552V28.8H297.443V33.012L288.911 54H283.655L291.935 33.552H281.171ZM317.432 37.044C317.432 38.988 316.928 40.692 315.92 42.156H315.956L308.108 54H302.42L308.036 45.792C305.42 45.768 303.284 44.94 301.628 43.308C299.996 41.676 299.18 39.588 299.18 37.044C299.18 34.452 300.02 32.352 301.7 30.744C303.404 29.112 305.6 28.296 308.288 28.296C310.976 28.296 313.172 29.112 314.876 30.744C316.58 32.376 317.432 34.476 317.432 37.044ZM304.112 37.044C304.112 38.268 304.508 39.264 305.3 40.032C306.092 40.776 307.088 41.148 308.288 41.148C309.536 41.148 310.544 40.776 311.312 40.032C312.104 39.264 312.5 38.268 312.5 37.044C312.5 35.82 312.104 34.836 311.312 34.092C310.544 33.348 309.536 32.976 308.288 32.976C307.088 32.976 306.092 33.36 305.3 34.128C304.508 34.872 304.112 35.844 304.112 37.044ZM334.09 45.36H320.59V40.896H334.09V45.36ZM354.246 54H337.398V50.292L346.002 41.436C347.922 39.396 348.882 37.716 348.882 36.396C348.882 35.412 348.57 34.62 347.946 34.02C347.346 33.42 346.566 33.12 345.606 33.12C343.686 33.12 342.282 34.104 341.394 36.072L337.218 33.624C337.986 31.92 339.102 30.612 340.566 29.7C342.054 28.764 343.71 28.296 345.534 28.296C347.814 28.296 349.77 29.016 351.402 30.456C353.034 31.872 353.85 33.792 353.85 36.216C353.85 38.832 352.47 41.52 349.71 44.28L344.778 49.212H354.246V54ZM355.316 33.552V28.8H371.588V33.012L363.056 54H357.8L366.08 33.552H355.316Z" fill="#1E959B"/>
<path d="M42.0652 0H6.5379C3.14026 0 0.395508 2.75542 0.395508 6.15306V78.2896C0.395508 81.6766 3.14026 84.4347 6.5379 84.4347H42.0652C45.4575 84.4347 48.2129 81.6793 48.2129 78.2896V6.15306C48.2102 2.75542 45.4575 0 42.0652 0ZM43.6054 68.4111H5.00297V10.3795H43.6054V68.4111ZM32.5385 6.24366H16.0673V4.44758H32.5411L32.5385 6.24366ZM39.5869 5.4229C39.5869 6.29163 38.8781 6.99514 38.012 6.99514C37.1433 6.99514 36.4371 6.28897 36.4371 5.4229C36.4371 4.55684 37.1433 3.85066 38.012 3.85066C38.8807 3.84799 39.5869 4.55417 39.5869 5.4229ZM31.8003 77.8792H16.8001V73.2638H31.8003V77.8792Z" fill="#1E959B"/>
</svg>
